<?xml version="1.0" standalone="no"?>
<!DOCTYPE svg PUBLIC "-//W3C//DTD SVG 20010904//EN"
 "http://www.w3.org/TR/2001/REC-SVG-20010904/DTD/svg10.dtd">
<svg version="1.0" xmlns="http://www.w3.org/2000/svg"
 width="1024.000000pt" height="1024.000000pt" viewBox="0 0 1024.000000 1024.000000"
 preserveAspectRatio="xMidYMid meet">

<g transform="translate(0.000000,1024.000000) scale(0.100000,-0.100000)"
fill="#000000" stroke="none">
<path d="M0 5120 l0 -5120 5120 0 5120 0 0 5120 0 5120 -5120 0 -5120 0 0
-5120z m5415 3490 c432 -32 771 -122 1196 -319 73 -33 298 -157 313 -172 6 -5
18 -9 28 -9 10 0 18 -4 18 -9 0 -11 50 -44 67 -44 7 0 13 -4 13 -8 0 -18 83
-67 111 -65 19 1 29 -3 29 -12 0 -7 4 -11 8 -8 5 3 15 -3 24 -12 31 -34 72
-60 120 -76 12 -3 15 -11 11 -22 -4 -11 -2 -15 4 -11 6 4 26 -6 44 -22 18 -16
38 -27 43 -24 5 3 6 1 3 -4 -4 -6 0 -16 8 -23 12 -10 15 -10 15 1 0 11 2 11 8
2 4 -7 18 -14 30 -16 12 -2 25 -7 29 -12 5 -4 1 -5 -7 0 -8 4 -6 -1 5 -12 11
-11 27 -18 36 -16 9 3 27 -9 42 -26 14 -17 32 -31 39 -31 7 0 22 -11 32 -25
10 -13 22 -22 27 -19 5 3 6 -2 3 -10 -3 -9 2 -17 15 -21 11 -3 31 -21 43 -38
12 -18 27 -37 33 -43 21 -23 54 -69 54 -77 0 -4 14 -24 30 -43 37 -42 63 -89
53 -98 -3 -4 1 -4 11 0 13 5 16 2 11 -9 -3 -9 3 -23 14 -33 12 -9 18 -24 14
-32 -3 -9 -1 -13 5 -9 6 4 14 0 17 -9 4 -10 2 -13 -7 -8 -6 4 -3 -2 8 -13 11
-11 24 -18 29 -15 5 3 6 0 2 -6 -3 -6 0 -17 8 -25 8 -8 12 -17 9 -21 -4 -3 2
-6 11 -6 13 0 16 -5 12 -16 -3 -9 3 -31 15 -50 11 -18 17 -39 13 -45 -4 -8 -3
-9 4 -5 8 5 12 -2 12 -18 0 -14 5 -26 11 -26 5 0 7 5 3 12 -4 7 -3 8 4 4 9 -5
9 -13 2 -27 -9 -16 -7 -21 15 -29 14 -5 25 -12 25 -15 0 -4 -6 -3 -12 0 -7 4
-3 -2 10 -13 12 -11 22 -27 22 -36 0 -8 5 -18 11 -21 6 -4 8 -13 5 -21 -3 -8
1 -14 9 -14 8 0 15 -5 15 -11 0 -5 -5 -7 -12 -3 -7 5 -8 3 -4 -5 5 -7 14 -10
21 -7 9 3 12 -2 10 -14 -2 -11 3 -26 11 -34 8 -8 14 -22 14 -30 0 -9 4 -16 8
-16 5 0 9 -17 10 -37 1 -21 7 -40 13 -42 8 -2 7 -6 -2 -12 -10 -6 -8 -9 7 -9
12 0 25 -7 28 -16 4 -10 2 -13 -7 -9 -6 4 -1 -3 13 -15 14 -12 19 -18 11 -14
-11 6 -13 3 -6 -12 4 -10 7 -27 7 -36 0 -10 4 -18 9 -18 6 0 7 -5 4 -10 -4 -6
-2 -17 5 -24 6 -8 9 -25 6 -39 -2 -15 1 -28 7 -30 9 -3 8 -9 -3 -22 -9 -11
-10 -16 -2 -11 7 4 12 2 12 -4 0 -6 4 -9 9 -6 4 3 8 -7 7 -22 0 -15 3 -38 8
-51 6 -16 5 -21 -3 -17 -19 12 -12 -2 12 -25 15 -15 18 -23 9 -26 -6 -3 -10
-9 -6 -14 3 -5 0 -9 -5 -9 -6 0 -11 -5 -11 -11 0 -5 5 -7 12 -3 7 4 8 3 4 -5
-4 -6 2 -53 13 -104 97 -439 116 -906 51 -1287 -115 -672 -414 -1263 -885
-1749 -542 -559 -1237 -902 -2040 -1007 -185 -25 -669 -25 -850 -1 -612 82
-1132 283 -1616 627 -126 90 -137 98 -176 133 -16 14 -26 17 -35 10 -18 -14
-50 -24 -44 -14 8 12 -26 49 -57 60 -15 6 -27 16 -27 23 0 9 3 9 11 -2 9 -13
10 -13 6 0 -2 8 -14 14 -25 13 -13 -2 -23 5 -27 18 -5 14 -13 19 -25 16 -12
-3 -20 2 -23 15 -3 12 -10 17 -17 13 -7 -4 -14 2 -17 14 -3 11 -9 18 -14 15
-5 -3 -9 0 -9 6 0 6 -5 8 -12 4 -6 -4 -8 -3 -5 3 3 5 -5 21 -18 35 -13 14 -21
28 -19 31 3 3 -4 8 -15 12 -12 3 -28 20 -36 36 -9 16 -19 29 -24 29 -5 0 -15
20 -22 45 -9 29 -18 44 -28 42 -7 -1 -16 4 -19 12 -3 9 0 11 9 7 8 -4 3 2 -11
14 -14 12 -18 19 -10 15 8 -4 5 2 -6 12 -21 17 -40 59 -36 76 1 4 -10 5 -25 1
-16 -3 -23 -2 -17 3 16 12 13 63 -4 63 -9 0 -12 -6 -8 -16 3 -8 2 -12 -4 -9
-6 3 -10 15 -10 26 0 13 -4 18 -12 13 -10 -6 -10 -4 0 7 6 7 12 20 11 29 0 8
-3 10 -5 4 -3 -7 -14 -10 -24 -7 -11 3 -17 9 -14 14 3 5 10 7 15 4 11 -7 11
-3 3 19 -3 9 -11 13 -17 9 -6 -3 -7 -1 -3 5 4 7 -20 57 -55 113 -139 229 -295
601 -369 887 -6 23 -15 42 -19 42 -5 0 -7 10 -3 22 3 12 1 19 -4 15 -10 -6
-14 15 -15 66 0 24 -2 27 -14 17 -12 -10 -15 -9 -16 6 -1 11 -1 22 0 26 0 4
-5 5 -12 2 -9 -3 -13 3 -12 18 1 13 -4 35 -11 49 -7 15 -11 29 -7 32 3 4 -1
23 -9 44 -8 21 -14 55 -14 75 1 21 -3 38 -7 38 -5 0 -5 5 -2 10 4 6 0 24 -9
40 -8 17 -11 28 -6 25 9 -6 5 73 -4 82 -3 4 -1 12 5 19 7 8 7 14 -1 19 -12 7
-14 65 -2 65 5 0 7 18 6 40 -1 22 2 40 8 40 5 0 6 5 3 10 -3 6 -1 10 6 10 6 0
9 8 6 20 -3 11 -1 23 4 26 11 6 12 24 2 23 -20 -3 -23 2 -10 16 9 8 13 24 10
35 -5 18 4 25 29 21 7 -1 5 13 -8 57 -3 12 -2 22 3 22 5 0 9 9 10 20 1 11 -4
20 -13 20 -8 0 -14 5 -14 10 0 6 7 10 16 10 13 0 11 5 -7 21 -13 11 -19 18
-12 15 6 -4 14 -2 18 4 3 5 2 10 -3 10 -6 0 -13 7 -16 16 -4 10 -2 13 6 8 7
-5 8 -3 2 7 -12 20 -14 39 -3 39 6 0 6 7 0 18 -12 23 -11 72 1 72 7 0 6 5 -1
13 -6 8 -8 17 -5 20 7 7 11 32 13 90 0 22 5 36 11 32 6 -3 7 1 4 9 -3 9 -10
14 -14 11 -5 -3 -12 -1 -15 5 -4 6 -1 9 7 8 9 -2 13 7 12 29 0 19 3 30 9 26 6
-4 8 0 4 10 -3 9 -2 19 4 23 5 3 7 15 3 26 -4 15 -3 19 7 14 9 -5 8 -3 -1 6
-14 12 -15 28 -9 98 1 8 11 26 23 39 11 13 16 21 10 18 -7 -4 -11 3 -11 18 0
15 4 22 11 18 6 -3 8 -3 4 2 -4 4 -4 13 1 19 13 16 17 49 8 64 -5 7 -3 12 3
12 7 0 9 8 5 19 -3 12 0 21 10 25 11 4 14 13 10 25 -4 13 0 24 12 31 16 10 16
11 1 6 -10 -3 -20 0 -24 6 -4 6 -3 8 3 5 13 -8 30 11 35 38 1 11 7 23 13 27 5
4 1 10 -9 14 -16 6 -14 10 15 26 19 11 26 17 17 14 -26 -8 -23 20 4 38 12 9
18 16 12 16 -6 0 -11 6 -11 14 0 8 5 14 11 13 6 -1 10 5 8 14 -1 9 9 28 22 42
24 26 24 31 1 28 -5 -1 -2 5 9 13 10 9 15 20 10 27 -4 7 -3 10 4 5 6 -3 13 -2
17 4 3 5 0 10 -7 10 -7 0 1 11 17 25 23 19 25 24 10 20 -11 -3 -8 1 7 8 20 9
25 16 17 24 -12 12 24 93 41 93 6 0 10 5 10 11 0 5 -6 7 -12 3 -7 -4 -3 4 10
18 12 13 22 30 22 37 0 7 5 9 10 6 6 -3 10 1 10 10 0 8 6 18 14 21 8 3 12 12
9 20 -3 9 0 14 8 12 8 -2 13 4 13 15 -2 15 8 21 29 18 4 0 7 5 7 13 0 21 26
67 33 59 4 -3 7 1 7 9 0 19 46 69 55 60 4 -4 6 -2 5 3 -5 22 1 35 16 35 8 0
13 4 9 10 -3 5 2 18 12 29 35 38 43 50 43 64 0 7 10 23 22 34 31 27 58 61 58
72 0 4 15 20 33 35 17 15 31 29 30 31 -2 3 -2 4 0 3 5 -5 35 27 31 34 -2 4 5
13 16 21 11 7 18 17 15 20 -3 4 -2 5 1 2 12 -9 45 16 42 32 -2 10 11 26 32 39
19 12 44 32 56 43 12 12 26 21 33 21 6 0 11 5 11 11 0 5 -4 7 -10 4 -5 -3 -10
-1 -10 4 0 6 7 11 16 11 8 0 12 5 8 11 -4 8 0 8 15 0 17 -10 21 -9 21 4 0 9 5
13 10 10 6 -3 10 -1 10 4 0 6 7 11 16 11 8 0 12 5 9 10 -3 6 1 10 10 10 9 0
14 4 10 9 -5 10 45 51 62 51 6 0 18 9 28 20 10 12 24 19 31 16 20 -8 35 15 21
32 -10 13 -9 14 11 3 15 -8 22 -8 22 -1 0 6 5 8 10 5 6 -3 10 -1 10 6 0 7 3 9
6 6 4 -3 15 -2 26 4 11 6 17 13 14 16 -8 8 26 32 45 33 9 0 22 7 29 15 7 9 18
14 24 12 11 -4 23 4 56 37 10 10 23 15 28 12 5 -3 15 1 22 9 7 8 19 15 27 15
7 0 26 9 42 21 15 11 34 21 42 23 31 5 59 18 59 27 0 14 30 11 30 -3 0 -8 5
-6 11 4 5 10 16 15 24 12 8 -4 15 -1 15 5 0 6 6 11 13 11 7 0 23 9 34 19 12
12 31 18 47 17 16 -2 26 2 26 10 0 7 8 11 20 9 11 -2 20 0 20 5 0 5 12 7 26 4
16 -3 23 -1 19 6 -4 6 4 10 18 10 14 0 40 7 60 15 19 8 38 11 41 7 4 -3 11 -1
15 7 8 13 29 18 116 27 28 3 59 9 70 14 22 10 75 21 120 25 17 1 38 3 48 3 10
1 15 6 12 12 -3 6 1 7 9 4 9 -3 64 5 123 19 299 70 697 100 1018 77z m-3677
-3195 c-3 -3 -9 2 -12 12 -6 14 -5 15 5 6 7 -7 10 -15 7 -18z"/>
<path d="M4965 8465 c-5 -2 -49 -7 -98 -10 -48 -4 -85 -10 -83 -14 3 -4 -11
-5 -29 -3 -30 4 -33 2 -28 -17 3 -12 1 -21 -5 -21 -6 0 -18 -7 -26 -16 -14
-13 -16 -14 -16 0 0 8 -4 18 -10 21 -6 4 -7 -1 -3 -12 5 -14 3 -16 -7 -6 -8 7
-20 9 -35 3 -13 -5 -26 -6 -31 -2 -4 4 -4 1 0 -6 4 -7 12 -9 18 -6 6 4 8 2 5
-4 -4 -5 -16 -8 -27 -5 -12 3 -20 0 -20 -8 0 -7 -3 -9 -6 -6 -4 3 -16 2 -27
-4 -14 -8 -18 -8 -13 0 10 15 -4 13 -34 -4 -14 -8 -41 -14 -61 -15 -27 0 -39
-6 -49 -24 -7 -14 -19 -27 -27 -30 -8 -3 -11 -2 -8 4 3 5 -3 8 -14 7 -20 -1
-23 -17 -6 -29 6 -4 0 -8 -12 -8 -13 0 -23 -6 -23 -12 0 -9 -4 -8 -10 2 -8 12
-10 11 -10 -7 0 -13 -5 -23 -11 -23 -5 0 -7 5 -3 12 4 7 3 8 -5 4 -9 -6 -9
-11 1 -24 11 -13 10 -15 -4 -9 -11 4 -18 2 -18 -6 -1 -18 -48 -49 -63 -41 -6
4 -9 4 -5 -1 9 -10 -41 -55 -61 -55 -8 0 -12 -3 -9 -6 4 -3 57 11 119 31 207
67 424 113 635 136 161 17 523 14 679 -5 574 -72 1083 -290 1555 -664 136
-108 376 -352 474 -480 290 -383 484 -804 570 -1237 25 -124 35 -223 26 -253
-8 -26 -8 -26 -8 8 0 55 -69 372 -109 495 -119 370 -303 718 -534 1005 -113
142 -340 367 -474 472 -545 424 -1161 638 -1837 638 -569 0 -1084 -140 -1561
-424 -236 -140 -383 -253 -585 -450 -448 -437 -743 -994 -851 -1606 -73 -416
-45 -897 76 -1305 143 -484 379 -874 754 -1245 288 -286 640 -513 1029 -663
358 -138 791 -212 1177 -201 598 16 1126 179 1613 496 200 130 436 330 425
359 -7 20 103 141 147 162 44 21 90 71 190 204 244 327 410 702 497 1128 47
226 56 328 56 605 0 305 15 269 22 -52 3 -183 1 -227 -22 -379 -68 -465 -220
-866 -470 -1239 -108 -160 -132 -209 -107 -218 5 -1 3 -19 -4 -40 -7 -20 -13
-44 -14 -52 0 -14 -21 -41 -89 -115 -60 -66 -132 -107 -193 -110 -41 -3 -57
-12 -150 -85 -426 -338 -855 -540 -1363 -639 -190 -37 -306 -49 -555 -55 -638
-17 -1301 181 -1833 547 -54 37 -102 65 -107 62 -6 -4 -10 1 -10 10 0 9 -4 13
-10 10 -5 -3 -19 -1 -30 5 -17 9 -28 7 -53 -7 -18 -11 -31 -23 -30 -29 1 -5
-6 -18 -15 -28 -9 -11 -11 -16 -4 -12 7 4 12 2 12 -4 0 -7 7 -10 14 -7 10 4
13 1 9 -9 -6 -17 -9 -17 -33 -4 -16 8 -18 8 -14 -5 3 -8 11 -12 17 -8 6 4 8 0
4 -11 -6 -14 -3 -15 14 -5 30 16 38 1 11 -20 -21 -15 -22 -19 -9 -30 12 -9 17
-9 23 0 4 7 3 9 -4 5 -6 -3 -13 -2 -16 3 -3 5 0 11 8 14 8 3 18 -5 25 -19 8
-19 8 -24 0 -18 -8 4 -9 3 -5 -4 4 -7 44 -38 89 -70 581 -412 1328 -623 2053
-582 492 28 877 125 1289 324 529 256 954 627 1280 1116 237 355 372 689 454
1123 24 125 26 153 9 160 -8 3 -6 6 5 6 20 1 24 43 5 63 -14 14 -17 76 -5 95
4 6 8 23 9 37 1 14 8 26 15 26 7 0 13 4 13 10 0 5 -6 7 -13 4 -8 -3 -14 2 -14
11 0 8 6 15 14 15 15 0 17 38 16 275 -1 188 -26 377 -79 595 -35 146 -63 238
-64 210 0 -12 -3 -11 -17 2 -14 14 -14 20 -3 33 7 8 10 18 6 22 -3 3 -6 1 -6
-5 0 -7 -7 -12 -15 -12 -8 0 -15 8 -15 18 0 14 2 15 10 2 14 -22 12 -7 -5 34
-8 20 -20 36 -25 36 -5 0 -7 7 -4 15 4 9 0 15 -9 15 -10 0 -13 8 -9 26 3 16 1
25 -5 21 -5 -3 -15 3 -22 15 -7 11 -8 17 -2 13 6 -3 11 -2 11 4 0 6 -8 15 -19
20 -10 6 -18 20 -17 33 1 13 -4 28 -11 33 -7 6 -14 22 -15 36 -1 16 -8 26 -17
25 -10 -1 -15 8 -16 24 0 14 -9 34 -20 45 -12 11 -16 17 -11 13 28 -22 22 -4
-9 27 -19 20 -35 39 -36 43 -3 35 -13 59 -33 83 -15 18 -22 36 -19 49 4 15 0
20 -15 20 -14 0 -19 6 -18 18 4 26 -26 82 -42 80 -8 -2 -17 4 -19 12 -4 13 -3
13 6 0 6 -8 11 -10 11 -4 0 14 -69 74 -86 74 -8 0 -14 7 -14 16 0 9 -5 12 -12
8 -8 -5 -9 -2 -5 9 4 11 -1 21 -16 29 -12 6 -24 11 -27 10 -3 0 -4 6 -2 14 2
8 -2 14 -8 14 -6 0 -8 5 -5 10 3 6 1 10 -4 10 -6 0 -11 -5 -11 -11 0 -21 -23
-2 -25 20 -2 27 -22 42 -43 33 -11 -4 -14 -1 -9 12 4 9 3 15 -1 13 -9 -6 -33
19 -25 27 4 3 -1 6 -11 6 -11 0 -14 4 -10 12 5 7 2 9 -8 5 -11 -4 -18 2 -22
19 -4 13 -13 24 -22 24 -21 0 -42 22 -36 39 3 10 -1 12 -17 8 -18 -4 -21 -1
-21 24 0 29 -13 38 -25 19 -12 -19 -25 0 -15 21 9 16 7 19 -12 19 -21 1 -22 2
-5 14 9 7 17 18 17 24 0 17 -18 24 -26 11 -4 -8 -3 -9 4 -5 7 4 12 2 12 -3 0
-20 -22 -11 -27 10 -4 16 -8 17 -14 7 -6 -9 -9 -7 -9 10 0 12 0 25 1 28 1 8
-42 44 -53 44 -4 0 -8 4 -8 10 0 5 -18 27 -40 49 -22 22 -40 45 -40 52 0 7 -3
9 -7 6 -7 -8 -39 34 -35 46 1 4 -4 6 -10 5 -7 -2 -12 3 -10 10 1 6 -5 12 -13
12 -8 0 -15 5 -15 10 0 6 -6 10 -12 10 -7 0 -24 17 -38 38 -31 46 -37 51 -64
46 -11 -2 -15 -2 -8 2 6 3 12 10 12 15 0 6 -4 8 -9 5 -8 -5 -23 17 -25 37 -1
10 -178 118 -309 186 -347 184 -716 294 -1122 336 -122 13 -502 20 -530 10z
m175 -1234 c0 -124 43 -278 115 -407 73 -132 294 -320 446 -379 32 -13 85 -29
117 -35 31 -6 67 -13 80 -16 l22 -4 0 -297 0 -296 -77 6 c-202 15 -437 106
-613 238 l-89 67 -4 -757 c-4 -852 -2 -834 -84 -1032 -53 -129 -119 -226 -227
-335 -187 -188 -404 -292 -676 -325 -181 -22 -409 14 -595 93 -230 98 -464
316 -582 544 -369 709 72 1579 872 1721 89 16 328 23 340 11 11 -11 18 -442
10 -569 l-7 -116 -111 -5 c-126 -6 -192 -25 -282 -79 -184 -110 -291 -331
-256 -527 51 -285 318 -466 586 -397 160 42 279 149 338 304 22 56 22 58 25
1354 l3 1297 324 0 325 0 0 -59z m1234 -1112 c22 -6 55 -21 75 -34 20 -12 185
-109 366 -216 710 -414 962 -562 1008 -591 71 -45 93 -104 67 -174 -8 -21 -14
-24 -22 -16 -7 7 -22 12 -34 12 -20 0 -22 4 -17 34 3 18 0 42 -6 54 -6 11 -66
53 -133 92 -68 40 -166 99 -218 130 -52 32 -243 144 -425 250 -181 106 -368
216 -415 243 -284 168 -320 181 -378 132 -35 -29 -41 -21 -16 26 9 18 32 38
57 50 50 22 43 21 91 8z m1906 -89 c0 -5 -5 -10 -11 -10 -5 0 -7 5 -4 10 3 6
8 10 11 10 2 0 4 -4 4 -10z m93 -901 c-9 -9 -12 -7 -10 9 1 14 5 18 11 12 7
-7 6 -14 -1 -21z m-13 -278 c0 -5 -7 -11 -15 -15 -15 -5 -20 5 -8 17 9 10 23
9 23 -2z m-5190 -1951 c0 -5 -4 -10 -10 -10 -5 0 -10 5 -10 10 0 6 5 10 10 10
6 0 10 -4 10 -10z"/>
<path d="M2242 6189 c-13 -16 -18 -29 -12 -29 6 0 9 -4 5 -10 -3 -5 -13 -6
-22 -3 -11 4 -14 3 -9 -5 4 -7 4 -12 -1 -12 -4 0 -13 -11 -20 -25 -6 -14 -7
-23 -2 -19 18 11 9 -12 -10 -26 -11 -7 -18 -17 -15 -22 3 -4 -2 -11 -10 -14
-9 -3 -16 -10 -16 -16 0 -5 4 -7 9 -3 6 3 9 -3 8 -14 0 -11 -5 -17 -11 -14 -5
4 -7 -1 -3 -10 3 -10 2 -17 -4 -17 -6 0 -7 -6 -3 -12 5 -9 2 -8 -9 1 -16 13
-17 12 -8 -10 10 -28 -6 -59 -26 -52 -7 3 -13 0 -13 -7 0 -6 5 -8 10 -5 12 7
4 -39 -11 -65 -7 -12 -8 -12 -9 -1 0 8 -2 12 -5 9 -3 -3 -1 -17 4 -32 7 -18 7
-26 0 -26 -6 0 -9 -5 -7 -12 2 -6 -4 -20 -14 -30 -14 -14 -16 -23 -8 -42 8
-21 7 -24 -7 -19 -11 4 -14 3 -9 -5 4 -7 3 -12 -3 -12 -6 0 -8 -7 -5 -15 4 -8
2 -15 -4 -15 -5 0 -12 -17 -14 -39 -2 -23 1 -38 7 -36 5 1 7 0 2 -2 -4 -3 -5
-9 -2 -14 4 -5 -1 -6 -9 -3 -9 3 -16 2 -16 -4 0 -6 6 -13 13 -15 9 -4 9 -6 0
-6 -7 -1 -17 -11 -24 -22 -8 -15 -8 -19 0 -15 6 4 11 0 12 -11 0 -11 3 -13 6
-5 2 6 9 9 15 6 6 -4 1 -13 -13 -21 -13 -8 -17 -12 -8 -10 8 3 21 -4 27 -14 7
-10 8 -19 3 -19 -5 0 -11 6 -14 13 -3 6 -3 -8 -2 -32 2 -24 10 -48 17 -52 10
-7 10 -9 -2 -9 -13 0 -13 -2 -1 -9 8 -5 11 -16 8 -25 -4 -10 1 -23 13 -33 18
-16 19 -19 4 -41 -9 -14 -12 -22 -6 -18 15 9 24 -24 11 -40 -9 -11 -7 -15 5
-20 9 -3 16 -11 16 -16 0 -6 -7 -8 -15 -4 -13 4 -14 2 -5 -14 7 -12 7 -20 1
-20 -5 0 -8 -12 -5 -27 3 -15 0 -30 -8 -34 -9 -6 -8 -9 6 -9 20 0 20 0 0 -16
-17 -14 -17 -15 -1 -10 10 3 15 2 12 -3 -3 -5 -1 -12 4 -16 6 -3 6 -17 -1 -35
-7 -22 -7 -34 1 -44 9 -11 9 -15 -1 -19 -10 -4 -10 -8 2 -16 10 -7 11 -11 3
-11 -7 0 -13 -7 -13 -16 0 -10 5 -14 16 -10 8 3 12 2 9 -4 -3 -6 -12 -10 -19
-10 -19 0 -16 -30 3 -30 14 -1 14 -2 -1 -11 -18 -10 -17 -62 3 -123 5 -16 7
-32 4 -34 -3 -3 -5 0 -5 7 0 7 -5 9 -10 6 -6 -4 -8 -11 -4 -16 7 -13 -15 -41
-27 -33 -5 3 -9 0 -9 -7 0 -7 8 -9 21 -6 15 4 19 2 15 -9 -3 -8 1 -14 9 -14 8
0 15 -5 15 -11 0 -6 -7 -8 -16 -5 -12 5 -15 2 -10 -10 3 -8 6 -18 6 -20 0 -3
6 -2 13 2 6 4 5 -1 -4 -12 -21 -24 -17 -50 28 -189 63 -195 153 -392 266 -582
54 -93 62 -101 80 -91 17 8 19 8 14 -5 -4 -11 -2 -14 9 -10 7 3 14 0 14 -6 0
-10 -14 -15 -33 -12 -13 2 19 -39 42 -55 12 -9 21 -11 21 -6 0 18 29 21 45 6
9 -9 15 -11 15 -4 0 6 10 10 23 8 12 -2 21 2 20 7 -2 15 25 37 32 25 3 -6 2
-10 -3 -10 -5 0 -12 -9 -15 -20 -3 -11 -1 -18 3 -15 5 3 14 0 22 -7 14 -14 61
-20 53 -7 -3 4 -1 10 5 14 5 3 10 1 10 -5 0 -6 5 -8 10 -5 6 3 10 1 10 -4 0
-6 4 -11 10 -11 5 0 -16 37 -49 83 -201 283 -373 658 -455 991 -77 313 -90
416 -90 741 0 348 23 517 114 840 16 55 28 100 27 101 -1 1 -12 -12 -25 -27z
m-128 -344 c-6 -16 -24 -21 -24 -7 0 11 11 22 21 22 5 0 6 -7 3 -15z m-124
-385 c0 -5 -2 -10 -4 -10 -3 0 -8 5 -11 10 -3 6 -1 10 4 10 6 0 11 -4 11 -10z
m380 -1746 c0 -8 -19 -13 -24 -6 -3 5 1 9 9 9 8 0 15 -2 15 -3z m20 -44 c0 -5
-5 -10 -11 -10 -5 0 -7 5 -4 10 3 6 8 10 11 10 2 0 4 -4 4 -10z m0 -32 c0 -4
-7 -8 -15 -8 -8 0 -15 4 -15 8 0 5 7 9 15 9 8 0 15 -4 15 -9z m42 -29 c2 -2 1
-3 -1 -2 -2 2 -9 -2 -16 -7 -8 -7 -12 -5 -12 4 0 12 22 16 29 5z m88 -59 c0
-5 -5 -10 -11 -10 -5 0 -7 5 -4 10 3 6 8 10 11 10 2 0 4 -4 4 -10z m-55 -30
c7 0 16 6 18 13 3 7 6 6 6 -5 1 -9 -3 -19 -8 -22 -15 -10 -41 5 -40 23 0 10 2
11 6 4 2 -7 11 -13 18 -13z m93 -5 c-3 -3 -9 2 -12 12 -6 14 -5 15 5 6 7 -7
10 -15 7 -18z m112 -25 c0 -5 -7 -10 -15 -10 -8 0 -15 5 -15 10 0 6 7 10 15
10 8 0 15 -4 15 -10z"/>
<path d="M2565 3470 c3 -5 8 -10 11 -10 2 0 4 5 4 10 0 6 -5 10 -11 10 -5 0
-7 -4 -4 -10z"/>
<path d="M3150 3011 c0 -5 7 -12 16 -15 14 -5 15 -4 4 9 -14 17 -20 19 -20 6z"/>
<path d="M3100 2990 c0 -5 5 -10 10 -10 6 0 10 5 10 10 0 6 -4 10 -10 10 -5 0
-10 -4 -10 -10z"/>
<path d="M3141 2981 c-11 -7 -11 -10 0 -14 12 -4 11 -7 -1 -16 -12 -9 -11 -11
7 -11 19 0 53 23 53 36 0 8 -9 4 -26 -13 -17 -17 -17 -17 -11 -1 7 21 -4 30
-22 19z"/>
<path d="M3210 2961 c0 -5 7 -12 16 -15 14 -5 15 -4 4 9 -14 17 -20 19 -20 6z"/>
<path d="M3090 2806 c0 -2 8 -10 18 -17 15 -13 16 -12 3 4 -13 16 -21 21 -21
13z"/>
<path d="M2870 2740 c0 -5 7 -7 15 -4 8 4 15 8 15 10 0 2 -7 4 -15 4 -8 0 -15
-4 -15 -10z"/>
</g>
</svg>
